Coordinates
version=1
nRows=8
nColumns=36
inDegrees=yes

Units are S.I. units (second, meters, Newtons, ...)
If the header above contains a line with 'inDegrees', this indicates whether rotational values are in degrees (yes) or radians (no).

endheader
time	pelvis_tilt	pelvis_list	pelvis_rotation	pelvis_tx	pelvis_ty	pelvis_tz	hip_flexion_r	hip_adduction_r	hip_rotation_r	knee_angle_r	knee_angle_r_beta	ankle_angle_r	subtalar_angle_r	mtp_angle_r	hip_flexion_l	hip_adduction_l	hip_rotation_l	knee_angle_l	knee_angle_l_beta	ankle_angle_l	subtalar_angle_l	mtp_angle_l	lumbar_extension	lumbar_bending	lumbar_rotation	arm_flex_r	arm_add_r	arm_rot_r	elbow_flex_r	pro_sup_r	arm_flex_l	arm_add_l	arm_rot_l	elbow_flex_l	pro_sup_l
      3.75000000	     -6.62429872	     -0.65840077	      1.58666208	      0.37897654	      0.93133053	     -0.04877349	      5.25365231	     -4.52055508	     -0.28781109	      3.57990246	      0.06248108	      2.85691854	     -7.60053725	     -7.49999987	      3.27149267	     -4.37600983	     -6.87217667	      0.76489282	      0.01334990	      4.62394300	      2.24407742	     -7.49999987	      2.35627124	     -6.87679845	    -14.82334015	    173.74415963	    -21.06617535	     66.29069654	     26.74164455	     68.18504416	     30.99557630	    -15.19166594	      4.14972327	     25.32068439	     67.99268069
      3.76666670	     -6.63318475	     -0.65972441	      1.63449145	      0.37908584	      0.93167433	     -0.04892410	      5.18127372	     -4.48894899	     -0.29811802	      3.44261504	      0.06008497	      2.83642334	     -7.61094803	     -7.49999987	      3.29210059	     -4.35968153	     -6.98089328	      0.76502028	      0.01335212	      4.54788351	      2.26977936	     -7.49999987	      2.31903560	     -6.91319653	    -14.87191295	    173.70837755	    -21.35117343	     65.99040344	     27.32024271	     68.60536675	     31.14099636	    -15.04522616	      3.98138860	     25.17861369	     68.09869401
      3.78333330	     -6.63153784	     -0.67643796	      1.62715714	      0.37883846	      0.93117182	     -0.04886022	      5.10659918	     -4.43397068	     -0.23735184	      3.30695185	      0.05771720	      2.82899196	     -7.66682926	     -7.49999987	      3.28546720	     -4.36991116	     -7.17319463	      0.75144159	      0.01311513	      4.59364473	      2.45562423	     -7.49999987	      2.30118991	     -6.88302940	    -15.11222217	    173.34106425	    -21.33956619	     64.81299384	     27.58068783	     68.44019130	     30.86933116	    -15.14582078	      3.78754122	     25.65009714	     67.92543745
      3.80000000	     -6.63969458	     -0.69289078	      1.70429014	      0.37900365	      0.93140515	     -0.04905621	      5.06750529	     -4.42365347	     -0.32805317	      3.28237838	      0.05728831	      2.80825801	     -7.61369724	     -7.49999987	      3.32236656	     -4.37760531	     -7.10590706	      0.73906649	      0.01289914	      4.52573886	      2.48118055	     -7.49999987	      2.29983286	     -6.88241303	    -15.07558125	    173.41637657	    -21.46876342	     64.94232460	     27.81161351	     68.82216713	     30.91060954	    -14.93995255	      4.18744684	     25.76044215	     67.97540341
      3.81666670	     -6.63264947	     -0.70664314	      1.72658503	      0.37885536	      0.93099922	     -0.04897024	      5.04198451	     -4.41103825	     -0.28946143	      3.29460148	      0.05750164	      2.87415935	     -7.59930583	     -7.49999987	      3.33503491	     -4.39370115	     -7.21160228	      0.73618074	      0.01284878	      4.57239128	      2.78317329	     -7.49999987	      2.39909532	     -6.81615626	    -15.85472279	    171.99260378	    -21.12202399	     61.24588801	     28.30638052	     65.35926342	     29.92963287	    -15.11869213	      2.43616415	     27.08426352	     64.78147303
      3.83333330	     -6.64125263	     -0.72401001	      1.83623804	      0.37894052	      0.93126442	     -0.04916444	      4.95851676	     -4.39342131	     -0.36485493	      3.18406189	      0.05557236	      2.82154349	     -7.58069013	     -7.49999987	      3.37723018	     -4.41051668	     -7.09031587	      0.72607408	      0.01267238	      4.47136585	      2.68084412	     -7.49999987	      2.31280398	     -6.85197618	    -15.22599378	    173.28109929	    -21.43259678	     64.67825107	     27.87043357	     68.89804439	     30.73895461	    -14.89087621	      5.05700495	     26.21360841	     67.66053339
      3.85000000	     -6.64542892	     -0.73922213	      1.82454271	      0.37878931	      0.93074213	     -0.04907604	      4.96932184	     -4.39797741	     -0.33569392	      3.20000025	      0.05585054	      2.85462832	     -7.60245138	     -7.49999987	      3.37029811	     -4.44274354	     -7.04607960	      0.71841080	      0.01253863	      4.57311532	      2.95059245	     -7.49999987	      2.32544244	     -6.84943324	    -15.14086890	    172.49512761	    -21.78876796	     62.08984792	     29.14048623	     68.83119902	     30.67865219	    -14.86527219	      5.56759877	     26.54026899	     67.27232226
      3.86666670	     -6.65930721	     -0.76656333	      1.84691464	      0.37897499	      0.93102688	     -0.04917225	      4.99644533	     -4.38115772	     -0.34517601	      3.21568194	      0.05612424	      2.89383024	     -7.57288326	     -7.49999987	      3.40336534	     -4.45801187	     -7.06275208	      0.70079219	      0.01223113	      4.72188068	      3.27435862	     -7.49999987	      2.34773061	     -6.82177237	    -15.06576242	    172.13366926	    -21.91930828	     60.36197871	     29.90733578	     70.03993366	     30.70515992	    -14.73085444	      5.53505559	     26.62414492	     67.43569297
